{
  "accessors": [
    {
      "bufferView": 2,
      "componentType": 5126,
      "count": 2131,
      "max": [
        74.115257263183594,
        58.541400909423828,
        170.43423461914062
      ],
      "min": [
        -74.486038208007812,
        -71.186737060546875,
        -40.009784698486328
      ],
      "type": "VEC3"
    },
    {
      "bufferView": 2,
      "byteOffset": 25572,
      "componentType": 5126,
      "count": 2131,
      "max": [
        0.99989050626754761,
        0.99991887807846069,
        0.99990558624267578
      ],
      "min": [
        -0.99994248151779175,
        -0.99997901916503906,
        -0.97025960683822632
      ],
      "type": "VEC3"
    },
    {
      "bufferView": 3,
      "componentType": 5126,
      "count": 2131,
      "max": [
        0.99999827146530151,
        0.99954348802566528,
        0.83016318082809448,
        1
      ],
      "min": [
        -0.99999964237213135,
        -0.99999356269836426,
        -0.8442344069480896,
        1
      ],
      "type": "VEC4"
    },
    {
      "bufferView": 1,
      "componentType": 5126,
      "count": 2131,
      "max": [
        0.99104297161102295,
        0.97597402334213257
      ],
      "min": [
        0.0093069998547434807,
        0.013163999654352665
      ],
      "type": "VEC2"
    },
    {
      "bufferView": 0,
      "componentType": 5125,
      "count": 12012,
      "max": [
        2130
      ],
      "min": [
        0
      ],
      "type": "SCALAR"
    }
  ],
  "asset": {
    "extras": {
      "author": "VidovicArts (https://sketchfab.com/oshjavid)",
      "license": "CC-BY-4.0 (http://creativecommons.org/licenses/by/4.0/)",
      "source": "https://sketchfab.com/3d-models/easter-island-head-63b114c5e7d24f7fae421dfacfe41376",
      "title": "Easter island head"
    },
    "generator": "Sketchfab-4.86.2",
    "version": "2.0"
  },
  "bufferViews": [
    {
      "buffer": 0,
      "byteLength": 48048,
      "byteOffset": 0,
      "name": "floatBufferViews",
      "target": 34963
    },
    {
      "buffer": 0,
      "byteLength": 17048,
      "byteOffset": 48048,
      "byteStride": 8,
      "name": "floatBufferViews",
      "target": 34962
    },
    {
      "buffer": 0,
      "byteLength": 51144,
      "byteOffset": 65096,
      "byteStride": 12,
      "name": "floatBufferViews",
      "target": 34962
    },
    {
      "buffer": 0,
      "byteLength": 34096,
      "byteOffset": 116240,
      "byteStride": 16,
      "name": "floatBufferViews",
      "target": 34962
    }
  ],
  "buffers": [
    {
      "byteLength": 150336,
      "uri": "scene.bin"
    }
  ],
  "images": [
    {
      "uri": "textures/Scene_-_Root_baseColor.jpeg"
    },
    {
      "uri": "textures/Scene_-_Root_normal.jpeg"
    }
  ],
  "materials": [
    {
      "doubleSided": true,
      "name": "Scene_-_Root",
      "normalTexture": {
        "index": 1,
        "scale": 1,
        "texCoord": 0
      },
      "pbrMetallicRoughness": {
        "baseColorFactor": [
          1,
          1,
          1,
          1
        ],
        "baseColorTexture": {
          "index": 0,
          "texCoord": 0
        },
        "metallicFactor": 0,
        "roughnessFactor": 0.59999999999999998
      }
    }
  ],
  "meshes": [
    {
      "primitives": [
        {
          "attributes": {
            "NORMAL": 1,
            "POSITION": 0,
            "TANGENT": 2,
            "TEXCOORD_0": 3
          },
          "indices": 4,
          "material": 0,
          "mode": 4
        }
      ]
    }
  ],
  "nodes": [
    {
      "children": [
        1
      ],
      "name": "RootNode (gltf orientation matrix)",
      "rotation": [
        -0.70710678118654746,
        -0,
        -0,
        0.70710678118654757
      ]
    },
    {
      "children": [
        2
      ],
      "matrix": [
        0.99998146295547485,
        0,
        0.0060921749100089073,
        0,
        0,
        1,
        0,
        0,
        -0.0060921749100089073,
        0,
        0.99998146295547485,
        0,
        0.39728096127510071,
        0,
        0.0023399773053824902,
        1
      ],
      "name": "RootNode (model correction matrix)"
    },
    {
      "children": [
        3
      ],
      "name": "ca2f93657a3f4546bd2a5aa2ae44050a.obj.cleaner"
    },
    {
      "mesh": 0,
      "name": ""
    }
  ],
  "samplers": [
    {
      "magFilter": 9729,
      "minFilter": 9987,
      "wrapS": 10497,
      "wrapT": 10497
    }
  ],
  "scene": 0,
  "scenes": [
    {
      "name": "OSG_Scene",
      "nodes": [
        0
      ]
    }
  ],
  "textures": [
    {
      "sampler": 0,
      "source": 0
    },
    {
      "sampler": 0,
      "source": 1
    }
  ]
}

